<?xml version="1.0" standalone="no"?>
<!DOCTYPE svg PUBLIC "-//W3C//DTD SVG 20010904//EN"
 "http://www.w3.org/TR/2001/REC-SVG-20010904/DTD/svg10.dtd">
<svg version="1.0" xmlns="http://www.w3.org/2000/svg"
 width="878.000000pt" height="878.000000pt" viewBox="0 0 878.000000 878.000000"
 preserveAspectRatio="xMidYMid meet">

<g transform="translate(0.000000,878.000000) scale(0.100000,-0.100000)"
fill="#000000" stroke="none">
<path d="M845 6488 c-11 -6 -26 -18 -32 -26 -10 -13 -13 -468 -13 -2199 0
-2404 -5 -2229 61 -2252 23 -8 490 -11 1645 -11 l1614 0 0 -55 c0 -67 8 -72
134 -91 98 -15 361 -18 439 -5 54 9 100 46 118 96 10 28 18 32 75 43 48 9 446
12 1608 12 959 0 1554 4 1570 10 60 22 56 -136 56 2249 0 1199 -3 2187 -6
2196 -15 38 -56 45 -249 45 l-185 0 0 -2102 0 -2103 -3163 -3 c-1739 -2 -3192
0 -3229 4 -38 3 -68 10 -68 15 0 5 18 29 39 52 l40 43 -29 11 -29 11 -4 683
c-2 376 -3 1293 -3 2037 l1 1352 -185 0 c-114 0 -193 -5 -205 -12z"/>
<path d="M5436 6139 c-117 -9 -284 -37 -406 -67 l-75 -19 2 -47 c1 -26 4 -50
7 -53 3 -3 72 8 153 25 218 47 318 56 623 56 346 1 486 -15 830 -93 47 -11
135 -30 195 -44 154 -35 229 -42 245 -22 20 24 4 65 -33 80 -18 7 -88 25 -157
39 -69 15 -188 42 -265 61 -204 50 -352 74 -510 85 -164 11 -454 11 -609 -1z"/>
<path d="M2870 6134 c-351 -24 -963 -176 -985 -245 -8 -24 2 -40 20 -33 8 3
24 -1 35 -9 19 -13 30 -12 113 15 148 48 387 106 519 128 400 64 925 51 1276
-31 45 -10 87 -19 92 -19 6 0 10 24 10 53 l0 52 -108 23 c-246 53 -334 62
-632 66 -157 2 -310 2 -340 0z"/>
<path d="M5485 5663 c-129 -6 -491 -67 -526 -88 -5 -4 -9 -33 -9 -66 0 -53 2
-60 18 -55 77 24 292 69 380 79 145 16 731 16 842 -1 103 -15 427 -89 605
-137 72 -20 147 -39 167 -42 33 -5 38 -3 43 20 4 13 5 37 3 53 -3 24 -9 29
-53 40 -27 7 -126 33 -219 58 -441 120 -630 148 -1001 144 -104 -1 -217 -3
-250 -5z"/>
<path d="M2795 5650 c-99 -10 -258 -36 -345 -56 -262 -61 -535 -137 -543 -152
-2 -4 -1 -28 2 -53 l6 -47 140 39 c421 118 616 154 935 170 313 17 535 -4 898
-82 29 -7 55 -10 57 -7 3 2 8 25 11 50 7 52 19 44 -131 79 -231 53 -305 61
-635 64 -173 2 -351 0 -395 -5z"/>
<path d="M5473 5179 c-121 -9 -283 -36 -428 -72 l-90 -22 -3 -49 c-2 -27 1
-53 5 -57 5 -5 56 3 113 17 244 59 339 68 680 68 425 -1 519 -16 1129 -179 52
-14 101 -25 108 -25 11 0 13 14 11 57 l-3 56 -190 49 c-394 100 -596 141 -780
158 -125 11 -386 11 -552 -1z"/>
<path d="M2930 5170 c-225 -11 -427 -46 -715 -124 -300 -81 -315 -87 -315
-132 0 -65 17 -67 172 -20 247 74 360 101 578 135 175 28 281 35 545 34 246
-1 323 -9 597 -64 81 -16 150 -29 153 -29 9 0 5 99 -4 104 -14 9 -288 64 -403
81 -134 19 -391 26 -608 15z"/>
<path d="M5505 4694 c-16 -3 -91 -14 -165 -24 -112 -16 -219 -35 -367 -66 -21
-4 -23 -10 -23 -65 0 -53 2 -60 18 -55 83 26 450 88 577 98 343 26 729 -22
1150 -142 167 -47 258 -69 293 -70 22 0 23 3 20 57 l-3 56 -80 18 c-44 9 -197
47 -340 83 -345 87 -497 108 -810 111 -132 2 -253 1 -270 -1z"/>
<path d="M2925 4684 c-16 -2 -79 -9 -140 -15 -121 -12 -280 -41 -480 -89 -170
-40 -377 -100 -392 -112 -7 -6 -13 -28 -13 -49 0 -56 24 -58 172 -15 468 135
690 170 1098 171 245 0 289 -3 405 -23 135 -24 323 -59 363 -68 20 -4 22 -1
22 45 0 27 -5 53 -10 56 -13 8 -262 61 -385 82 -85 14 -564 27 -640 17z"/>
<path d="M5545 4210 c-145 -10 -222 -21 -430 -63 l-160 -32 -3 -52 c-4 -63 -4
-63 133 -34 277 60 334 66 645 66 286 -1 301 -1 480 -32 212 -37 218 -38 550
-127 137 -37 231 -58 235 -54 2 1 5 28 6 58 4 63 25 51 -176 99 -66 16 -172
42 -235 59 -355 94 -728 133 -1045 112z"/>
<path d="M2995 4203 c-221 -14 -487 -59 -758 -128 -293 -74 -332 -87 -331
-108 0 -9 1 -34 2 -55 l2 -38 69 17 c39 10 101 27 139 38 109 33 337 87 457
109 214 40 304 47 595 47 300 0 337 -3 648 -61 73 -13 136 -24 138 -24 3 0 4
23 2 52 l-3 52 -60 13 c-371 77 -640 103 -900 86z"/>
<path d="M5510 3729 c-111 -12 -441 -66 -505 -82 l-50 -13 -3 -52 c-4 -60 -7
-59 100 -36 40 8 161 28 268 45 164 25 224 30 380 30 102 0 221 -5 265 -10
196 -25 249 -33 395 -62 85 -16 241 -54 345 -84 278 -79 285 -81 296 -64 5 8
9 32 9 54 l0 41 -251 68 c-271 73 -350 91 -619 137 -195 33 -472 46 -630 28z"/>
<path d="M2979 3716 c-2 -2 -44 -6 -94 -10 -192 -13 -427 -58 -735 -141 -269
-72 -253 -64 -244 -123 3 -26 8 -50 10 -54 2 -3 55 9 117 27 342 102 551 148
793 175 308 34 580 25 922 -30 100 -17 190 -30 198 -30 12 0 14 10 12 47 l-3
48 -55 12 c-240 54 -495 83 -734 83 -101 0 -185 -2 -187 -4z"/>
</g>
</svg>
